<mxfile host="app.diagrams.net" modified="2021-08-12T06:26:47.057Z" agent="5.0 (Windows NT 10.0; Win64; x64) AppleWebKit/537.36 (KHTML, like Gecko) Chrome/92.0.4515.131 Safari/537.36 Edg/92.0.902.67" etag="q3OX0dtVBhgCwUzAiRe2" version="14.9.6" type="github">
  <diagram id="nYiRIeSHOg5MPnFf_H3z" name="Page-1">
    <mxGraphModel dx="1038" dy="588" grid="1" gridSize="10" guides="1" tooltips="1" connect="1" arrows="1" fold="1" page="1" pageScale="1" pageWidth="827" pageHeight="1169" math="0" shadow="0">
      <root>
        <mxCell id="0" />
        <mxCell id="1" parent="0" />
        <mxCell id="MIB-RSdA4s0meyl00Pk_-3" value="로그인" style="rounded=1;whiteSpace=wrap;html=1;" parent="1" vertex="1">
          <mxGeometry x="80" y="40" width="80" height="30" as="geometry" />
        </mxCell>
        <mxCell id="MIB-RSdA4s0meyl00Pk_-4" value="기업회원인가?" style="rhombus;whiteSpace=wrap;html=1;" parent="1" vertex="1">
          <mxGeometry x="70" y="110" width="100" height="60" as="geometry" />
        </mxCell>
        <mxCell id="MIB-RSdA4s0meyl00Pk_-6" value="No" style="text;html=1;resizable=0;autosize=1;align=center;verticalAlign=middle;points=[];fillColor=none;strokeColor=none;rounded=0;" parent="1" vertex="1">
          <mxGeometry x="180" y="110" width="30" height="20" as="geometry" />
        </mxCell>
        <mxCell id="MIB-RSdA4s0meyl00Pk_-7" value="Yes" style="text;html=1;resizable=0;autosize=1;align=center;verticalAlign=middle;points=[];fillColor=none;strokeColor=none;rounded=0;" parent="1" vertex="1">
          <mxGeometry x="130" y="170" width="30" height="20" as="geometry" />
        </mxCell>
        <mxCell id="MIB-RSdA4s0meyl00Pk_-8" value="" style="endArrow=classic;html=1;" parent="1" edge="1">
          <mxGeometry width="50" height="50" relative="1" as="geometry">
            <mxPoint x="119.5" y="70" as="sourcePoint" />
            <mxPoint x="120" y="110" as="targetPoint" />
            <Array as="points">
              <mxPoint x="119.5" y="80" />
            </Array>
          </mxGeometry>
        </mxCell>
        <mxCell id="MIB-RSdA4s0meyl00Pk_-10" value="" style="endArrow=classic;html=1;" parent="1" target="MIB-RSdA4s0meyl00Pk_-26" edge="1">
          <mxGeometry width="50" height="50" relative="1" as="geometry">
            <mxPoint x="119.5" y="170" as="sourcePoint" />
            <mxPoint x="120" y="210" as="targetPoint" />
            <Array as="points">
              <mxPoint x="119.5" y="180" />
            </Array>
          </mxGeometry>
        </mxCell>
        <mxCell id="MIB-RSdA4s0meyl00Pk_-12" value="&lt;font style=&quot;font-size: 10px&quot;&gt;프로필 등록 유무&lt;/font&gt;" style="rhombus;whiteSpace=wrap;html=1;" parent="1" vertex="1">
          <mxGeometry x="220" y="110" width="100" height="60" as="geometry" />
        </mxCell>
        <mxCell id="MIB-RSdA4s0meyl00Pk_-15" value="" style="endArrow=classic;html=1;" parent="1" edge="1">
          <mxGeometry width="50" height="50" relative="1" as="geometry">
            <mxPoint x="170" y="139.5" as="sourcePoint" />
            <mxPoint x="220" y="139.5" as="targetPoint" />
            <Array as="points">
              <mxPoint x="180" y="139.5" />
            </Array>
          </mxGeometry>
        </mxCell>
        <mxCell id="MIB-RSdA4s0meyl00Pk_-17" value="No" style="text;html=1;resizable=0;autosize=1;align=center;verticalAlign=middle;points=[];fillColor=none;strokeColor=none;rounded=0;" parent="1" vertex="1">
          <mxGeometry x="330" y="110" width="30" height="20" as="geometry" />
        </mxCell>
        <mxCell id="MIB-RSdA4s0meyl00Pk_-18" value="" style="endArrow=classic;html=1;" parent="1" edge="1">
          <mxGeometry width="50" height="50" relative="1" as="geometry">
            <mxPoint x="320" y="139.5" as="sourcePoint" />
            <mxPoint x="370" y="139.5" as="targetPoint" />
            <Array as="points">
              <mxPoint x="330" y="139.5" />
            </Array>
          </mxGeometry>
        </mxCell>
        <mxCell id="MIB-RSdA4s0meyl00Pk_-19" value="" style="endArrow=classic;html=1;" parent="1" edge="1">
          <mxGeometry width="50" height="50" relative="1" as="geometry">
            <mxPoint x="269.5" y="170" as="sourcePoint" />
            <mxPoint x="270" y="220" as="targetPoint" />
            <Array as="points">
              <mxPoint x="269.5" y="180" />
            </Array>
          </mxGeometry>
        </mxCell>
        <mxCell id="MIB-RSdA4s0meyl00Pk_-20" value="Yes" style="text;html=1;resizable=0;autosize=1;align=center;verticalAlign=middle;points=[];fillColor=none;strokeColor=none;rounded=0;" parent="1" vertex="1">
          <mxGeometry x="280" y="180" width="30" height="20" as="geometry" />
        </mxCell>
        <mxCell id="MIB-RSdA4s0meyl00Pk_-21" value="&lt;font style=&quot;font-size: 10px&quot;&gt;투자사 정보입력&lt;/font&gt;" style="shape=parallelogram;perimeter=parallelogramPerimeter;whiteSpace=wrap;html=1;fixedSize=1;" parent="1" vertex="1">
          <mxGeometry x="370" y="120" width="100" height="40" as="geometry" />
        </mxCell>
        <mxCell id="MIB-RSdA4s0meyl00Pk_-22" value="" style="endArrow=none;dashed=1;html=1;dashPattern=1 3;strokeWidth=2;" parent="1" edge="1">
          <mxGeometry width="50" height="50" relative="1" as="geometry">
            <mxPoint x="430" y="120" as="sourcePoint" />
            <mxPoint x="430" y="80" as="targetPoint" />
          </mxGeometry>
        </mxCell>
        <mxCell id="MIB-RSdA4s0meyl00Pk_-23" value="" style="shape=image;verticalLabelPosition=bottom;labelBackgroundColor=#ffffff;verticalAlign=top;aspect=fixed;imageAspect=0;image=data:image/png,iVBORw0KGgoAAAANSUhEUgAAADAAAAAmCAYAAACCjRgBAAAHOUlEQVRYCdWZZ2gVWxCAY42dxCgWrFExVhSN2HtH8I/5oUSDiopgB1ETxfJDRey9KxqTWGPBiomgInZBVOwFezf2PvIN7yx7dzfee303z7yBye7dc86c6TPnJEz+5xAWLP+fP3+Ws2fPyunTp+Xo0aMyc+ZMGTBggCQkJCj269dPwL59+yqa32acubNmzZJjx44pjXPnzsnXr1+DZcOa71eA27dvy/bt22XUqFHSrl07qVmzpoSFhYUUa9WqpbTHjBmje927d89i0N+LpwBv376V1atXK9GiRYu6mC1RooSUK1dONY5go0ePVpw4caJaZNWqVZKamqq4cuVKmTFjhiQlJVnzWINFoAEtp0KKFy8uXbp0kXXr1snHjx9/K4NLgB07dkjVqlUtovny5ZO6devKlClTZN68eXLjxg15+fKlZGVl/ZZwIIPQgNbNmzeV9tSpU6VOnTqSP39+a38svnv37mzJ+QiApow2YHru3Lly+fLlbBfn1MCVK1dkzpw5Urt2bYufZcuWeW5nCfD06VPBdAUKFFA3IFj/Nnz69EkmTZokeEHZsmXl3bt3LpYsAa5du6bSli9fPiTu4drpDz88fPhQSpUqJYUKFZJnz565qFgCXL9+XcLDw1UITLd27Vq/AeSiFsIPxMfSpUulWrVqylNUVJQ8f/7ctYOnACYOYmJiZMSIEZKeni4vXrxwLQ71h8ePH+tegwcPlujoaMv/8+TJIyVLlvQvABNbtmyphcZIboQpXbq0IBApcOHChbJkyRI5c+aMvHnzxgfxWyeQCp3zTpw4IYsWLVJaQ4cOVdqRkZEW0+xLfZg/f740bNhQvcOvBVjUuXNn3f/Dhw+qDSxQo0YNDSQjjP1ZpEgRYWOD1atXl+bNm0vHjh0VmzVrpto04zwLFy7sw6ihhwuz19ixY2Xfvn1ilBEbG6v7ByRAhw4dnAqUnz9/Cqlt69atsmLFCmWsTZs20qJFCylTpownM4Ypr2eFChXU0tDo2rWrFixoUw/YywmNGjXS2hCQAFTAYACiJ0+eDApxp2AgYAvkzZtX0A7azi2AcgjgYsWK+Q9ik0YpaOPGjRNS69+CS5cuybBhw6RgwYLqogGnUTKR8VuqMsFItjh06JDkZHV+//69Bi6tNl2v4YFnUGm0bdu2kpaWppnEToR3cjPNVv/+/WXx4sWKFLyLFy9q9ab4+EP6fzpds75Pnz5Ks1KlSj5M487t27cXmkv6MpQZUBB36tRJvYZscP78ea0JELJ3qE7B+E1bTIrE1E7Ehxnzap3ttFBQt27ddE9cyACpnXn0a07wqcRMwmW8gFPTkSNHZMuWLdqlQrR169bSqlUradCggfYqdma83jlbkBJZw9ru3burJaB5/Phxr2312+vXr2XXrl1CbXKCSwC0/Sdw69YtwT3IGlRZO/INa969e9cvaWhs3LhR1q9fLxs2bJDMzMzfrvERgIMEVZIY+K/h8OHD0rRpU584MFbEwjt37vRkyUcAWlaziODKyMiQL1++eC4M5cdp06bpvgQq52I0f+rUKdm8ebNwSouIiNDx+Ph41wWAjwAQoPe29yr16tWTIUOGyN69e+XChQuh5FtpzZ49W5nr2bOn3Llzx5M+2QceUC5PO/gIwAQC6+rVqzJo0CBLcmMVnpwVEIpx+nWDKSkp2ssQcLQKJp3yG3zw4IEGIvONO9y/f1/TI0Ht1QPZGeW9V69eKsTBgwetIZcA9mYOybdt2yaTJ0+W+vXrS8WKFZWAXSDnO9UcC9Klgrgl1dReIEeOHKkMGK06Lfvjxw/p3bu3DBw40EcwzgukYgRmDuASILs0ymSTSgnyTZs2aann/ADSmTZp0kR7d84NnCdAenpSJ2O02RRKbja+f/8uVapU0THlxPYHa5ByaWmcEBcXp0p89eqVDlkCmDMxZfzfAszRdoDZuQbVG+uNHz/e2o5TH3dB3I7QvCEENyOkVHOgp+1mHWkZsATAPJiaQOZiKqeBq0UYmTBhgrUV2cfpkuY3N4TAgQMHdM6ePXv0tyUAmiIQzQLcguMclskJ4LYBDXP+NYCW0TZ3QsYC9Ez79++3fJ7LNXg014+WAIYIQeu8/ySwyc8QQnO4SCigcePG2iOZgLTTJPgRwgnEE4FsXMolAAtobZOTkzVt2WuCsU7lypW1QyQwhw8fLtyaLV++PCAkA5EAANZA0+vWLTExUdasWeMTQ9Qi5rOnAU8BzCDPJ0+e6Fl4+vTpeuFK20u3aYT5kyeZiYz27ds3rSsoyQSlfW/7OzHAZTA3dI8ePbKG/ApgzfznhU25LcCdiBmDaJHcTar0Qv5PwDmA+dxcmxaFGkCrQAIh+3DZawcEJS5MO8FVvx2CFsC+OFTvdKDc/WBNGOUqpkePHlqwqBV85zyCCzkhVwgAUwQymuZARTXHIjwJ2gULFmhcOpnnd64RwM4c/2AxaP/u9Z4rBfBiNLtvvwA4uY2TXQ3xdAAAAABJRU5ErkJggg==;" parent="1" vertex="1">
          <mxGeometry x="414" y="50" width="37.89" height="30" as="geometry" />
        </mxCell>
        <mxCell id="MIB-RSdA4s0meyl00Pk_-24" value="&lt;span style=&quot;font-size: 8px&quot;&gt;*입력정보&lt;/span&gt;" style="text;html=1;resizable=0;autosize=1;align=center;verticalAlign=middle;points=[];fillColor=none;strokeColor=none;rounded=0;" parent="1" vertex="1">
          <mxGeometry x="450" y="30" width="60" height="20" as="geometry" />
        </mxCell>
        <mxCell id="MIB-RSdA4s0meyl00Pk_-26" value="&lt;font style=&quot;font-size: 10px&quot;&gt;프로필 등록 유무&lt;/font&gt;" style="rhombus;whiteSpace=wrap;html=1;" parent="1" vertex="1">
          <mxGeometry x="70" y="380" width="100" height="60" as="geometry" />
        </mxCell>
        <mxCell id="MIB-RSdA4s0meyl00Pk_-28" value="" style="endArrow=classic;html=1;" parent="1" edge="1">
          <mxGeometry width="50" height="50" relative="1" as="geometry">
            <mxPoint x="470" y="139.5" as="sourcePoint" />
            <mxPoint x="520" y="139.5" as="targetPoint" />
            <Array as="points">
              <mxPoint x="480" y="139.5" />
            </Array>
          </mxGeometry>
        </mxCell>
        <mxCell id="MIB-RSdA4s0meyl00Pk_-29" value="&lt;font style=&quot;font-size: 10px&quot;&gt;관리자 승인여부&lt;/font&gt;" style="rhombus;whiteSpace=wrap;html=1;" parent="1" vertex="1">
          <mxGeometry x="520" y="110" width="100" height="60" as="geometry" />
        </mxCell>
        <mxCell id="MIB-RSdA4s0meyl00Pk_-32" value="" style="endArrow=classic;html=1;" parent="1" edge="1">
          <mxGeometry width="50" height="50" relative="1" as="geometry">
            <mxPoint x="620" y="139.5" as="sourcePoint" />
            <mxPoint x="670" y="139.5" as="targetPoint" />
            <Array as="points">
              <mxPoint x="630" y="139.5" />
            </Array>
          </mxGeometry>
        </mxCell>
        <mxCell id="MIB-RSdA4s0meyl00Pk_-33" value="No" style="text;html=1;resizable=0;autosize=1;align=center;verticalAlign=middle;points=[];fillColor=none;strokeColor=none;rounded=0;" parent="1" vertex="1">
          <mxGeometry x="580" y="180" width="30" height="20" as="geometry" />
        </mxCell>
        <mxCell id="MIB-RSdA4s0meyl00Pk_-34" value="Yes" style="text;html=1;resizable=0;autosize=1;align=center;verticalAlign=middle;points=[];fillColor=none;strokeColor=none;rounded=0;" parent="1" vertex="1">
          <mxGeometry x="620" y="110" width="30" height="20" as="geometry" />
        </mxCell>
        <mxCell id="MIB-RSdA4s0meyl00Pk_-36" value="&lt;font style=&quot;font-size: 10px&quot;&gt;투자사 정보수정&lt;/font&gt;" style="rounded=0;whiteSpace=wrap;html=1;" parent="1" vertex="1">
          <mxGeometry x="225" y="225" width="90" height="30" as="geometry" />
        </mxCell>
        <mxCell id="MIB-RSdA4s0meyl00Pk_-37" value="종료" style="rounded=1;whiteSpace=wrap;html=1;" parent="1" vertex="1">
          <mxGeometry x="680" y="125" width="80" height="30" as="geometry" />
        </mxCell>
        <mxCell id="MIB-RSdA4s0meyl00Pk_-40" value="" style="endArrow=classic;html=1;" parent="1" edge="1">
          <mxGeometry width="50" height="50" relative="1" as="geometry">
            <mxPoint x="570" y="240" as="sourcePoint" />
            <mxPoint x="320" y="239.5" as="targetPoint" />
            <Array as="points">
              <mxPoint x="520" y="239.5" />
            </Array>
          </mxGeometry>
        </mxCell>
        <mxCell id="MIB-RSdA4s0meyl00Pk_-53" value="" style="endArrow=none;html=1;" parent="1" edge="1">
          <mxGeometry width="50" height="50" relative="1" as="geometry">
            <mxPoint x="570" y="240" as="sourcePoint" />
            <mxPoint x="569.5" y="170" as="targetPoint" />
          </mxGeometry>
        </mxCell>
        <mxCell id="MIB-RSdA4s0meyl00Pk_-54" value="&lt;font style=&quot;font-size: 10px&quot;&gt;관리자 승인여부&lt;/font&gt;" style="rhombus;whiteSpace=wrap;html=1;" parent="1" vertex="1">
          <mxGeometry x="220" y="310" width="100" height="60" as="geometry" />
        </mxCell>
        <mxCell id="MIB-RSdA4s0meyl00Pk_-55" value="" style="endArrow=classic;html=1;" parent="1" edge="1">
          <mxGeometry width="50" height="50" relative="1" as="geometry">
            <mxPoint x="269.5" y="255" as="sourcePoint" />
            <mxPoint x="270" y="305" as="targetPoint" />
            <Array as="points">
              <mxPoint x="269.5" y="265" />
            </Array>
          </mxGeometry>
        </mxCell>
        <mxCell id="MIB-RSdA4s0meyl00Pk_-56" value="" style="endArrow=none;html=1;" parent="1" edge="1">
          <mxGeometry width="50" height="50" relative="1" as="geometry">
            <mxPoint x="320" y="339.5" as="sourcePoint" />
            <mxPoint x="720" y="340" as="targetPoint" />
          </mxGeometry>
        </mxCell>
        <mxCell id="MIB-RSdA4s0meyl00Pk_-57" value="" style="endArrow=classic;html=1;" parent="1" edge="1">
          <mxGeometry width="50" height="50" relative="1" as="geometry">
            <mxPoint x="720" y="340" as="sourcePoint" />
            <mxPoint x="719.5" y="155" as="targetPoint" />
            <Array as="points" />
          </mxGeometry>
        </mxCell>
        <mxCell id="MIB-RSdA4s0meyl00Pk_-58" value="Yes" style="text;html=1;resizable=0;autosize=1;align=center;verticalAlign=middle;points=[];fillColor=none;strokeColor=none;rounded=0;" parent="1" vertex="1">
          <mxGeometry x="320" y="310" width="30" height="20" as="geometry" />
        </mxCell>
        <mxCell id="MIB-RSdA4s0meyl00Pk_-59" value="" style="endArrow=none;dashed=1;html=1;" parent="1" edge="1">
          <mxGeometry width="50" height="50" relative="1" as="geometry">
            <mxPoint x="190" y="340" as="sourcePoint" />
            <mxPoint x="220" y="339.5" as="targetPoint" />
          </mxGeometry>
        </mxCell>
        <mxCell id="MIB-RSdA4s0meyl00Pk_-61" value="" style="endArrow=none;dashed=1;html=1;" parent="1" edge="1">
          <mxGeometry width="50" height="50" relative="1" as="geometry">
            <mxPoint x="190" y="240" as="sourcePoint" />
            <mxPoint x="190" y="340" as="targetPoint" />
          </mxGeometry>
        </mxCell>
        <mxCell id="MIB-RSdA4s0meyl00Pk_-62" value="" style="endArrow=classic;html=1;" parent="1" edge="1">
          <mxGeometry width="50" height="50" relative="1" as="geometry">
            <mxPoint x="190" y="240" as="sourcePoint" />
            <mxPoint x="225" y="239.5" as="targetPoint" />
          </mxGeometry>
        </mxCell>
        <mxCell id="MIB-RSdA4s0meyl00Pk_-63" value="No" style="text;html=1;resizable=0;autosize=1;align=center;verticalAlign=middle;points=[];fillColor=none;strokeColor=none;rounded=0;" parent="1" vertex="1">
          <mxGeometry x="195" y="310" width="30" height="20" as="geometry" />
        </mxCell>
        <mxCell id="MIB-RSdA4s0meyl00Pk_-64" value="" style="endArrow=classic;html=1;" parent="1" edge="1">
          <mxGeometry width="50" height="50" relative="1" as="geometry">
            <mxPoint x="119.5" y="440" as="sourcePoint" />
            <mxPoint x="120" y="480" as="targetPoint" />
            <Array as="points">
              <mxPoint x="119.5" y="450" />
            </Array>
          </mxGeometry>
        </mxCell>
        <mxCell id="MIB-RSdA4s0meyl00Pk_-66" value="" style="endArrow=classic;html=1;" parent="1" edge="1">
          <mxGeometry width="50" height="50" relative="1" as="geometry">
            <mxPoint x="170" y="409.5" as="sourcePoint" />
            <mxPoint x="220" y="409.5" as="targetPoint" />
            <Array as="points">
              <mxPoint x="180" y="409.5" />
            </Array>
          </mxGeometry>
        </mxCell>
        <mxCell id="MIB-RSdA4s0meyl00Pk_-67" value="Yes" style="text;html=1;resizable=0;autosize=1;align=center;verticalAlign=middle;points=[];fillColor=none;strokeColor=none;rounded=0;" parent="1" vertex="1">
          <mxGeometry x="130" y="440" width="30" height="20" as="geometry" />
        </mxCell>
        <mxCell id="MIB-RSdA4s0meyl00Pk_-68" value="No" style="text;html=1;resizable=0;autosize=1;align=center;verticalAlign=middle;points=[];fillColor=none;strokeColor=none;rounded=0;" parent="1" vertex="1">
          <mxGeometry x="180" y="380" width="30" height="20" as="geometry" />
        </mxCell>
        <mxCell id="MIB-RSdA4s0meyl00Pk_-69" value="&lt;span style=&quot;font-size: 10px&quot;&gt;스타트업 정보수정&lt;/span&gt;" style="rounded=0;whiteSpace=wrap;html=1;" parent="1" vertex="1">
          <mxGeometry x="75" y="480" width="90" height="30" as="geometry" />
        </mxCell>
        <mxCell id="MIB-RSdA4s0meyl00Pk_-70" value="" style="endArrow=classic;html=1;" parent="1" edge="1">
          <mxGeometry width="50" height="50" relative="1" as="geometry">
            <mxPoint x="119.5" y="510" as="sourcePoint" />
            <mxPoint x="120" y="550" as="targetPoint" />
            <Array as="points">
              <mxPoint x="119.5" y="520" />
            </Array>
          </mxGeometry>
        </mxCell>
        <mxCell id="MIB-RSdA4s0meyl00Pk_-71" value="&lt;font style=&quot;font-size: 10px&quot;&gt;관리자 승인여부&lt;/font&gt;" style="rhombus;whiteSpace=wrap;html=1;" parent="1" vertex="1">
          <mxGeometry x="70" y="555" width="100" height="60" as="geometry" />
        </mxCell>
        <mxCell id="MIB-RSdA4s0meyl00Pk_-72" value="" style="endArrow=none;dashed=1;html=1;" parent="1" edge="1">
          <mxGeometry width="50" height="50" relative="1" as="geometry">
            <mxPoint x="40" y="584.5" as="sourcePoint" />
            <mxPoint x="70" y="584" as="targetPoint" />
          </mxGeometry>
        </mxCell>
        <mxCell id="MIB-RSdA4s0meyl00Pk_-73" value="" style="endArrow=none;dashed=1;html=1;" parent="1" edge="1">
          <mxGeometry width="50" height="50" relative="1" as="geometry">
            <mxPoint x="40" y="500" as="sourcePoint" />
            <mxPoint x="40" y="580" as="targetPoint" />
          </mxGeometry>
        </mxCell>
        <mxCell id="MIB-RSdA4s0meyl00Pk_-74" value="" style="endArrow=classic;html=1;" parent="1" edge="1">
          <mxGeometry width="50" height="50" relative="1" as="geometry">
            <mxPoint x="40" y="495" as="sourcePoint" />
            <mxPoint x="75" y="494.5" as="targetPoint" />
          </mxGeometry>
        </mxCell>
        <mxCell id="MIB-RSdA4s0meyl00Pk_-75" value="No" style="text;html=1;resizable=0;autosize=1;align=center;verticalAlign=middle;points=[];fillColor=none;strokeColor=none;rounded=0;" parent="1" vertex="1">
          <mxGeometry x="45" y="555" width="30" height="20" as="geometry" />
        </mxCell>
        <mxCell id="MIB-RSdA4s0meyl00Pk_-76" value="Yes" style="text;html=1;resizable=0;autosize=1;align=center;verticalAlign=middle;points=[];fillColor=none;strokeColor=none;rounded=0;" parent="1" vertex="1">
          <mxGeometry x="160" y="555" width="30" height="20" as="geometry" />
        </mxCell>
        <mxCell id="MIB-RSdA4s0meyl00Pk_-77" value="" style="endArrow=none;html=1;" parent="1" edge="1">
          <mxGeometry width="50" height="50" relative="1" as="geometry">
            <mxPoint x="170" y="585" as="sourcePoint" />
            <mxPoint x="760" y="585" as="targetPoint" />
          </mxGeometry>
        </mxCell>
        <mxCell id="MIB-RSdA4s0meyl00Pk_-78" value="" style="endArrow=classic;html=1;" parent="1" edge="1">
          <mxGeometry width="50" height="50" relative="1" as="geometry">
            <mxPoint x="760.5" y="585" as="sourcePoint" />
            <mxPoint x="760" y="160" as="targetPoint" />
            <Array as="points" />
          </mxGeometry>
        </mxCell>
        <mxCell id="MIB-RSdA4s0meyl00Pk_-81" value="" style="endArrow=classic;html=1;" parent="1" edge="1">
          <mxGeometry width="50" height="50" relative="1" as="geometry">
            <mxPoint x="570" y="495" as="sourcePoint" />
            <mxPoint x="165" y="494.5" as="targetPoint" />
            <Array as="points">
              <mxPoint x="365" y="494.5" />
            </Array>
          </mxGeometry>
        </mxCell>
        <mxCell id="MIB-RSdA4s0meyl00Pk_-86" value="&lt;font style=&quot;font-size: 10px&quot;&gt;스타트업 정보입력&lt;/font&gt;" style="shape=parallelogram;perimeter=parallelogramPerimeter;whiteSpace=wrap;html=1;fixedSize=1;" parent="1" vertex="1">
          <mxGeometry x="230" y="390" width="100" height="40" as="geometry" />
        </mxCell>
        <mxCell id="MIB-RSdA4s0meyl00Pk_-88" value="" style="shape=image;verticalLabelPosition=bottom;labelBackgroundColor=#ffffff;verticalAlign=top;aspect=fixed;imageAspect=0;image=data:image/png,iVBORw0KGgoAAAANSUhEUgAAADAAAAAmCAYAAACCjRgBAAAHOUlEQVRYCdWZZ2gVWxCAY42dxCgWrFExVhSN2HtH8I/5oUSDiopgB1ETxfJDRey9KxqTWGPBiomgInZBVOwFezf2PvIN7yx7dzfee303z7yBye7dc86c6TPnJEz+5xAWLP+fP3+Ws2fPyunTp+Xo0aMyc+ZMGTBggCQkJCj269dPwL59+yqa32acubNmzZJjx44pjXPnzsnXr1+DZcOa71eA27dvy/bt22XUqFHSrl07qVmzpoSFhYUUa9WqpbTHjBmje927d89i0N+LpwBv376V1atXK9GiRYu6mC1RooSUK1dONY5go0ePVpw4caJaZNWqVZKamqq4cuVKmTFjhiQlJVnzWINFoAEtp0KKFy8uXbp0kXXr1snHjx9/K4NLgB07dkjVqlUtovny5ZO6devKlClTZN68eXLjxg15+fKlZGVl/ZZwIIPQgNbNmzeV9tSpU6VOnTqSP39+a38svnv37mzJ+QiApow2YHru3Lly+fLlbBfn1MCVK1dkzpw5Urt2bYufZcuWeW5nCfD06VPBdAUKFFA3IFj/Nnz69EkmTZokeEHZsmXl3bt3LpYsAa5du6bSli9fPiTu4drpDz88fPhQSpUqJYUKFZJnz565qFgCXL9+XcLDw1UITLd27Vq/AeSiFsIPxMfSpUulWrVqylNUVJQ8f/7ctYOnACYOYmJiZMSIEZKeni4vXrxwLQ71h8ePH+tegwcPlujoaMv/8+TJIyVLlvQvABNbtmyphcZIboQpXbq0IBApcOHChbJkyRI5c+aMvHnzxgfxWyeQCp3zTpw4IYsWLVJaQ4cOVdqRkZEW0+xLfZg/f740bNhQvcOvBVjUuXNn3f/Dhw+qDSxQo0YNDSQjjP1ZpEgRYWOD1atXl+bNm0vHjh0VmzVrpto04zwLFy7sw6ihhwuz19ixY2Xfvn1ilBEbG6v7ByRAhw4dnAqUnz9/Cqlt69atsmLFCmWsTZs20qJFCylTpownM4Ypr2eFChXU0tDo2rWrFixoUw/YywmNGjXS2hCQAFTAYACiJ0+eDApxp2AgYAvkzZtX0A7azi2AcgjgYsWK+Q9ik0YpaOPGjRNS69+CS5cuybBhw6RgwYLqogGnUTKR8VuqMsFItjh06JDkZHV+//69Bi6tNl2v4YFnUGm0bdu2kpaWppnEToR3cjPNVv/+/WXx4sWKFLyLFy9q9ab4+EP6fzpds75Pnz5Ks1KlSj5M487t27cXmkv6MpQZUBB36tRJvYZscP78ea0JELJ3qE7B+E1bTIrE1E7Ehxnzap3ttFBQt27ddE9cyACpnXn0a07wqcRMwmW8gFPTkSNHZMuWLdqlQrR169bSqlUradCggfYqdma83jlbkBJZw9ru3burJaB5/Phxr2312+vXr2XXrl1CbXKCSwC0/Sdw69YtwT3IGlRZO/INa969e9cvaWhs3LhR1q9fLxs2bJDMzMzfrvERgIMEVZIY+K/h8OHD0rRpU584MFbEwjt37vRkyUcAWlaziODKyMiQL1++eC4M5cdp06bpvgQq52I0f+rUKdm8ebNwSouIiNDx+Ph41wWAjwAQoPe29yr16tWTIUOGyN69e+XChQuh5FtpzZ49W5nr2bOn3Llzx5M+2QceUC5PO/gIwAQC6+rVqzJo0CBLcmMVnpwVEIpx+nWDKSkp2ssQcLQKJp3yG3zw4IEGIvONO9y/f1/TI0Ht1QPZGeW9V69eKsTBgwetIZcA9mYOybdt2yaTJ0+W+vXrS8WKFZWAXSDnO9UcC9Klgrgl1dReIEeOHKkMGK06Lfvjxw/p3bu3DBw40EcwzgukYgRmDuASILs0ymSTSgnyTZs2aann/ADSmTZp0kR7d84NnCdAenpSJ2O02RRKbja+f/8uVapU0THlxPYHa5ByaWmcEBcXp0p89eqVDlkCmDMxZfzfAszRdoDZuQbVG+uNHz/e2o5TH3dB3I7QvCEENyOkVHOgp+1mHWkZsATAPJiaQOZiKqeBq0UYmTBhgrUV2cfpkuY3N4TAgQMHdM6ePXv0tyUAmiIQzQLcguMclskJ4LYBDXP+NYCW0TZ3QsYC9Ez79++3fJ7LNXg014+WAIYIQeu8/ySwyc8QQnO4SCigcePG2iOZgLTTJPgRwgnEE4FsXMolAAtobZOTkzVt2WuCsU7lypW1QyQwhw8fLtyaLV++PCAkA5EAANZA0+vWLTExUdasWeMTQ9Qi5rOnAU8BzCDPJ0+e6Fl4+vTpeuFK20u3aYT5kyeZiYz27ds3rSsoyQSlfW/7OzHAZTA3dI8ePbKG/ApgzfznhU25LcCdiBmDaJHcTar0Qv5PwDmA+dxcmxaFGkCrQAIh+3DZawcEJS5MO8FVvx2CFsC+OFTvdKDc/WBNGOUqpkePHlqwqBV85zyCCzkhVwgAUwQymuZARTXHIjwJ2gULFmhcOpnnd64RwM4c/2AxaP/u9Z4rBfBiNLtvvwA4uY2TXQ3xdAAAAABJRU5ErkJggg==;" parent="1" vertex="1">
          <mxGeometry x="332.11" y="395" width="37.89" height="30" as="geometry" />
        </mxCell>
        <mxCell id="MIB-RSdA4s0meyl00Pk_-89" value="&lt;font style=&quot;font-size: 8px&quot;&gt;*입력정보&lt;/font&gt;" style="text;html=1;resizable=0;autosize=1;align=center;verticalAlign=middle;points=[];fillColor=none;strokeColor=none;rounded=0;" parent="1" vertex="1">
          <mxGeometry x="370" y="360" width="60" height="20" as="geometry" />
        </mxCell>
        <mxCell id="MIB-RSdA4s0meyl00Pk_-90" value="" style="endArrow=classic;html=1;" parent="1" edge="1">
          <mxGeometry width="50" height="50" relative="1" as="geometry">
            <mxPoint x="470" y="409.5" as="sourcePoint" />
            <mxPoint x="520" y="409.5" as="targetPoint" />
            <Array as="points">
              <mxPoint x="480" y="409.5" />
            </Array>
          </mxGeometry>
        </mxCell>
        <mxCell id="MIB-RSdA4s0meyl00Pk_-91" value="&lt;font style=&quot;font-size: 10px&quot;&gt;관리자 승인여부&lt;/font&gt;" style="rhombus;whiteSpace=wrap;html=1;" parent="1" vertex="1">
          <mxGeometry x="520" y="380" width="100" height="60" as="geometry" />
        </mxCell>
        <mxCell id="MIB-RSdA4s0meyl00Pk_-93" value="" style="endArrow=none;html=1;" parent="1" edge="1">
          <mxGeometry width="50" height="50" relative="1" as="geometry">
            <mxPoint x="569.5" y="495" as="sourcePoint" />
            <mxPoint x="570" y="440" as="targetPoint" />
          </mxGeometry>
        </mxCell>
        <mxCell id="MIB-RSdA4s0meyl00Pk_-94" value="" style="endArrow=none;html=1;" parent="1" edge="1">
          <mxGeometry width="50" height="50" relative="1" as="geometry">
            <mxPoint x="620" y="409.5" as="sourcePoint" />
            <mxPoint x="740" y="409" as="targetPoint" />
          </mxGeometry>
        </mxCell>
        <mxCell id="MIB-RSdA4s0meyl00Pk_-95" value="" style="endArrow=classic;html=1;" parent="1" edge="1">
          <mxGeometry width="50" height="50" relative="1" as="geometry">
            <mxPoint x="740.5" y="410" as="sourcePoint" />
            <mxPoint x="740" y="160" as="targetPoint" />
            <Array as="points" />
          </mxGeometry>
        </mxCell>
        <mxCell id="MIB-RSdA4s0meyl00Pk_-96" value="No" style="text;html=1;resizable=0;autosize=1;align=center;verticalAlign=middle;points=[];fillColor=none;strokeColor=none;rounded=0;" parent="1" vertex="1">
          <mxGeometry x="580" y="440" width="30" height="20" as="geometry" />
        </mxCell>
        <mxCell id="MIB-RSdA4s0meyl00Pk_-97" value="Yes" style="text;html=1;resizable=0;autosize=1;align=center;verticalAlign=middle;points=[];fillColor=none;strokeColor=none;rounded=0;" parent="1" vertex="1">
          <mxGeometry x="620" y="380" width="30" height="20" as="geometry" />
        </mxCell>
      </root>
    </mxGraphModel>
  </diagram>
</mxfile>
